<svg id="visual" viewBox="0 0 960 150" width="960" height="150" xmlns="http://www.w3.org/2000/svg" xmlns:xlink="http://www.w3.org/1999/xlink" version="1.1"><rect x="0" y="0" width="960" height="150" fill="#73c5ff"></rect><path d="M0 93L14.5 91C29 89 58 85 87.2 80.5C116.3 76 145.7 71 174.8 61.2C204 51.3 233 36.7 262 30.8C291 25 320 28 349 35.7C378 43.3 407 55.7 436.2 60.7C465.3 65.7 494.7 63.3 523.8 66.5C553 69.7 582 78.3 611 83.8C640 89.3 669 91.7 698 84.2C727 76.7 756 59.3 785.2 53.5C814.3 47.7 843.7 53.3 872.8 61.5C902 69.7 931 80.3 945.5 85.7L960 91L960 151L945.5 151C931 151 902 151 872.8 151C843.7 151 814.3 151 785.2 151C756 151 727 151 698 151C669 151 640 151 611 151C582 151 553 151 523.8 151C494.7 151 465.3 151 436.2 151C407 151 378 151 349 151C320 151 291 151 262 151C233 151 204 151 174.8 151C145.7 151 116.3 151 87.2 151C58 151 29 151 14.5 151L0 151Z" fill="#4facf7"></path><path d="M0 36L14.5 45.3C29 54.7 58 73.3 87.2 74C116.3 74.7 145.7 57.3 174.8 57.5C204 57.7 233 75.3 262 79.8C291 84.3 320 75.7 349 72C378 68.3 407 69.7 436.2 69.7C465.3 69.7 494.7 68.3 523.8 70.8C553 73.3 582 79.7 611 76.2C640 72.7 669 59.3 698 62C727 64.7 756 83.3 785.2 87.2C814.3 91 843.7 80 872.8 80C902 80 931 91 945.5 96.5L960 102L960 151L945.5 151C931 151 902 151 872.8 151C843.7 151 814.3 151 785.2 151C756 151 727 151 698 151C669 151 640 151 611 151C582 151 553 151 523.8 151C494.7 151 465.3 151 436.2 151C407 151 378 151 349 151C320 151 291 151 262 151C233 151 204 151 174.8 151C145.7 151 116.3 151 87.2 151C58 151 29 151 14.5 151L0 151Z" fill="#1e97fd"></path><path d="M0 106L14.5 103.2C29 100.3 58 94.7 87.2 89.7C116.3 84.7 145.7 80.3 174.8 83.8C204 87.3 233 98.7 262 99.7C291 100.7 320 91.3 349 92.2C378 93 407 104 436.2 104.3C465.3 104.7 494.7 94.3 523.8 85.7C553 77 582 70 611 74.7C640 79.3 669 95.7 698 98C727 100.3 756 88.7 785.2 82.5C814.3 76.3 843.7 75.7 872.8 80C902 84.3 931 93.7 945.5 98.3L960 103L960 151L945.5 151C931 151 902 151 872.8 151C843.7 151 814.3 151 785.2 151C756 151 727 151 698 151C669 151 640 151 611 151C582 151 553 151 523.8 151C494.7 151 465.3 151 436.2 151C407 151 378 151 349 151C320 151 291 151 262 151C233 151 204 151 174.8 151C145.7 151 116.3 151 87.2 151C58 151 29 151 14.5 151L0 151Z" fill="#0080ff"></path><path d="M0 98L14.5 104C29 110 58 122 87.2 125.7C116.3 129.3 145.7 124.7 174.8 123.2C204 121.7 233 123.3 262 125.7C291 128 320 131 349 132.7C378 134.3 407 134.7 436.2 130.8C465.3 127 494.7 119 523.8 113.7C553 108.3 582 105.7 611 110.2C640 114.7 669 126.3 698 127C727 127.7 756 117.3 785.2 114.2C814.3 111 843.7 115 872.8 118.5C902 122 931 125 945.5 126.5L960 128L960 151L945.5 151C931 151 902 151 872.8 151C843.7 151 814.3 151 785.2 151C756 151 727 151 698 151C669 151 640 151 611 151C582 151 553 151 523.8 151C494.7 151 465.3 151 436.2 151C407 151 378 151 349 151C320 151 291 151 262 151C233 151 204 151 174.8 151C145.7 151 116.3 151 87.2 151C58 151 29 151 14.5 151L0 151Z" fill="#0066ff"></path></svg>