<svg id="visual" viewBox="0 0 960 150" width="960" height="150" xmlns="http://www.w3.org/2000/svg" xmlns:xlink="http://www.w3.org/1999/xlink" version="1.1"><rect x="0" y="0" width="960" height="150" fill="#acddff"></rect><path d="M0 33L22.8 33.3C45.7 33.7 91.3 34.3 137 41C182.7 47.7 228.3 60.3 274 69C319.7 77.7 365.3 82.3 411.2 88C457 93.7 503 100.3 548.8 96.3C594.7 92.3 640.3 77.7 686 66.7C731.7 55.7 777.3 48.3 823 37.8C868.7 27.3 914.3 13.7 937.2 6.8L960 0L960 151L937.2 151C914.3 151 868.7 151 823 151C777.3 151 731.7 151 686 151C640.3 151 594.7 151 548.8 151C503 151 457 151 411.2 151C365.3 151 319.7 151 274 151C228.3 151 182.7 151 137 151C91.3 151 45.7 151 22.8 151L0 151Z" fill="#acddff"></path><path d="M0 127L22.8 121.2C45.7 115.3 91.3 103.7 137 94.3C182.7 85 228.3 78 274 68.3C319.7 58.7 365.3 46.3 411.2 45.5C457 44.7 503 55.3 548.8 63.8C594.7 72.3 640.3 78.7 686 83.7C731.7 88.7 777.3 92.3 823 90C868.7 87.7 914.3 79.3 937.2 75.2L960 71L960 151L937.2 151C914.3 151 868.7 151 823 151C777.3 151 731.7 151 686 151C640.3 151 594.7 151 548.8 151C503 151 457 151 411.2 151C365.3 151 319.7 151 274 151C228.3 151 182.7 151 137 151C91.3 151 45.7 151 22.8 151L0 151Z" fill="#76c3ff"></path><path d="M0 133L22.8 121.8C45.7 110.7 91.3 88.3 137 83.2C182.7 78 228.3 90 274 89.5C319.7 89 365.3 76 411.2 70.8C457 65.7 503 68.3 548.8 75.7C594.7 83 640.3 95 686 99.5C731.7 104 777.3 101 823 103C868.7 105 914.3 112 937.2 115.5L960 119L960 151L937.2 151C914.3 151 868.7 151 823 151C777.3 151 731.7 151 686 151C640.3 151 594.7 151 548.8 151C503 151 457 151 411.2 151C365.3 151 319.7 151 274 151C228.3 151 182.7 151 137 151C91.3 151 45.7 151 22.8 151L0 151Z" fill="#3aa7ff"></path><path d="M0 105L22.8 104C45.7 103 91.3 101 137 100.5C182.7 100 228.3 101 274 100.7C319.7 100.3 365.3 98.7 411.2 104.7C457 110.7 503 124.3 548.8 124C594.7 123.7 640.3 109.3 686 102.2C731.7 95 777.3 95 823 98.5C868.7 102 914.3 109 937.2 112.5L960 116L960 151L937.2 151C914.3 151 868.7 151 823 151C777.3 151 731.7 151 686 151C640.3 151 594.7 151 548.8 151C503 151 457 151 411.2 151C365.3 151 319.7 151 274 151C228.3 151 182.7 151 137 151C91.3 151 45.7 151 22.8 151L0 151Z" fill="#0089ff"></path><path d="M0 138L22.8 135.5C45.7 133 91.3 128 137 128.8C182.7 129.7 228.3 136.3 274 133.3C319.7 130.3 365.3 117.7 411.2 113.7C457 109.7 503 114.3 548.8 120.2C594.7 126 640.3 133 686 136.7C731.7 140.3 777.3 140.7 823 140.2C868.7 139.7 914.3 138.3 937.2 137.7L960 137L960 151L937.2 151C914.3 151 868.7 151 823 151C777.3 151 731.7 151 686 151C640.3 151 594.7 151 548.8 151C503 151 457 151 411.2 151C365.3 151 319.7 151 274 151C228.3 151 182.7 151 137 151C91.3 151 45.7 151 22.8 151L0 151Z" fill="#0066ff"></path></svg>