<svg id="visual" viewBox="0 0 960 150" width="960" height="150" xmlns="http://www.w3.org/2000/svg" xmlns:xlink="http://www.w3.org/1999/xlink" version="1.1"><rect x="0" y="0" width="960" height="150" fill="#0066FF"></rect><path d="M0 78L107 109L213 115L320 68L427 92L533 123L640 75L747 111L853 70L960 88L960 0L853 0L747 0L640 0L533 0L427 0L320 0L213 0L107 0L0 0Z" fill="#0066ff"></path><path d="M0 88L107 55L213 66L320 83L427 80L533 84L640 64L747 51L853 53L960 98L960 0L853 0L747 0L640 0L533 0L427 0L320 0L213 0L107 0L0 0Z" fill="#007dff"></path><path d="M0 76L107 44L213 73L320 40L427 40L533 55L640 49L747 80L853 65L960 48L960 0L853 0L747 0L640 0L533 0L427 0L320 0L213 0L107 0L0 0Z" fill="#0091ff"></path><path d="M0 61L107 42L213 35L320 68L427 68L533 52L640 39L747 59L853 37L960 28L960 0L853 0L747 0L640 0L533 0L427 0L320 0L213 0L107 0L0 0Z" fill="#27a3ff"></path><path d="M0 38L107 31L213 43L320 45L427 24L533 37L640 34L747 25L853 45L960 23L960 0L853 0L747 0L640 0L533 0L427 0L320 0L213 0L107 0L0 0Z" fill="#50b4ff"></path><path d="M0 25L107 11L213 31L320 19L427 24L533 21L640 27L747 16L853 22L960 19L960 0L853 0L747 0L640 0L533 0L427 0L320 0L213 0L107 0L0 0Z" fill="#73c5ff"></path></svg>