<svg xmlns="http://www.w3.org/2000/svg" width="26" height="22" viewBox="0 0 26 22">
  <path id="Path_7369" data-name="Path 7369" d="M176,329.388a2.177,2.177,0,0,1,1.028.437v-2.569a3.6,3.6,0,0,1-1.439-2.865,1.76,1.76,0,0,0-1.76-1.761h-6.28a1.32,1.32,0,0,0,0,2.641h2.47a1.313,1.313,0,0,0,.576,2.5h1.592a1.281,1.281,0,0,0-.269.758,1.32,1.32,0,0,0,1.32,1.321h1.076A2.187,2.187,0,0,1,176,329.388ZM190.9,322.63h-6.28a1.76,1.76,0,0,0-1.76,1.761,3.6,3.6,0,0,1-1.439,2.865v2.57a2.191,2.191,0,0,1,2.713.02h1.077a1.32,1.32,0,0,0,1.32-1.321,1.287,1.287,0,0,0-.268-.758h1.591a1.313,1.313,0,0,0,.576-2.5h2.47a1.32,1.32,0,1,0,0-2.641Zm-12.56,3.877v6.476a1.1,1.1,0,0,0,1.761,0v-6.476a2.2,2.2,0,1,0-1.761,0Zm1.385,11.307a1.9,1.9,0,0,0-1.385.9v4.7a.881.881,0,1,0,1.761,0v-5.673c-.125.027-.248.056-.375.076Zm1.139-.282a2.5,2.5,0,0,1,.687,2.051,2.3,2.3,0,0,1-.43,1.041.88.88,0,1,0,1.417,1.044,4.036,4.036,0,0,0,.756-1.83,4.191,4.191,0,0,0-.832-3.117A6.392,6.392,0,0,1,180.869,337.532Zm1.777-6.838a.88.88,0,0,0-.743,1,2.894,2.894,0,0,1-2.636,3.074c-.017,0-.032.009-.049.012s-.021-.01-.033-.012a2.894,2.894,0,0,1-2.636-3.074.88.88,0,1,0-1.742-.254,4.411,4.411,0,0,0,2.137,4.32,4.357,4.357,0,0,0-1.791,4.078,4.035,4.035,0,0,0,.756,1.831.88.88,0,1,0,1.417-1.044,2.3,2.3,0,0,1-.431-1.041,2.9,2.9,0,0,1,2.637-3.075,4.651,4.651,0,0,0,4.113-5.069A.883.883,0,0,0,182.646,330.694Z" transform="translate(-166.226 -322.292)" fill="#b5bec2"/>
</svg>
