<svg id="visual" viewBox="0 0 900 150" width="900" height="150" xmlns="http://www.w3.org/2000/svg" xmlns:xlink="http://www.w3.org/1999/xlink" version="1.1"><path d="M0 10L13.7 12.8C27.3 15.7 54.7 21.3 82 24.7C109.3 28 136.7 29 163.8 27.2C191 25.3 218 20.7 245.2 17.8C272.3 15 299.7 14 327 12.3C354.3 10.7 381.7 8.3 409 9.8C436.3 11.3 463.7 16.7 491 18.8C518.3 21 545.7 20 573 20.5C600.3 21 627.7 23 654.8 21C682 19 709 13 736.2 14C763.3 15 790.7 23 818 24C845.3 25 872.7 19 886.3 16L900 13L900 0L886.3 0C872.7 0 845.3 0 818 0C790.7 0 763.3 0 736.2 0C709 0 682 0 654.8 0C627.7 0 600.3 0 573 0C545.7 0 518.3 0 491 0C463.7 0 436.3 0 409 0C381.7 0 354.3 0 327 0C299.7 0 272.3 0 245.2 0C218 0 191 0 163.8 0C136.7 0 109.3 0 82 0C54.7 0 27.3 0 13.7 0L0 0Z" fill="#0066ff"></path><path d="M0 37L13.7 40.3C27.3 43.7 54.7 50.3 82 50.7C109.3 51 136.7 45 163.8 44.5C191 44 218 49 245.2 46.7C272.3 44.3 299.7 34.7 327 29.3C354.3 24 381.7 23 409 24.3C436.3 25.7 463.7 29.3 491 33.7C518.3 38 545.7 43 573 46.2C600.3 49.3 627.7 50.7 654.8 49.2C682 47.7 709 43.3 736.2 41.3C763.3 39.3 790.7 39.7 818 37.7C845.3 35.7 872.7 31.3 886.3 29.2L900 27L900 11L886.3 14C872.7 17 845.3 23 818 22C790.7 21 763.3 13 736.2 12C709 11 682 17 654.8 19C627.7 21 600.3 19 573 18.5C545.7 18 518.3 19 491 16.8C463.7 14.7 436.3 9.3 409 7.8C381.7 6.3 354.3 8.7 327 10.3C299.7 12 272.3 13 245.2 15.8C218 18.7 191 23.3 163.8 25.2C136.7 27 109.3 26 82 22.7C54.7 19.3 27.3 13.7 13.7 10.8L0 8Z" fill="#0082ff"></path><path d="M0 81L13.7 77.7C27.3 74.3 54.7 67.7 82 66.2C109.3 64.7 136.7 68.3 163.8 73.3C191 78.3 218 84.7 245.2 82.8C272.3 81 299.7 71 327 68C354.3 65 381.7 69 409 72.5C436.3 76 463.7 79 491 78.8C518.3 78.7 545.7 75.3 573 76.7C600.3 78 627.7 84 654.8 85C682 86 709 82 736.2 81.7C763.3 81.3 790.7 84.7 818 82C845.3 79.3 872.7 70.7 886.3 66.3L900 62L900 25L886.3 27.2C872.7 29.3 845.3 33.7 818 35.7C790.7 37.7 763.3 37.3 736.2 39.3C709 41.3 682 45.7 654.8 47.2C627.7 48.7 600.3 47.3 573 44.2C545.7 41 518.3 36 491 31.7C463.7 27.3 436.3 23.7 409 22.3C381.7 21 354.3 22 327 27.3C299.7 32.7 272.3 42.3 245.2 44.7C218 47 191 42 163.8 42.5C136.7 43 109.3 49 82 48.7C54.7 48.3 27.3 41.7 13.7 38.3L0 35Z" fill="#009aff"></path><path d="M0 124L13.7 125.5C27.3 127 54.7 130 82 131.3C109.3 132.7 136.7 132.3 163.8 131.3C191 130.3 218 128.7 245.2 126.8C272.3 125 299.7 123 327 116.8C354.3 110.7 381.7 100.3 409 98.2C436.3 96 463.7 102 491 103C518.3 104 545.7 100 573 100.7C600.3 101.3 627.7 106.7 654.8 105.7C682 104.7 709 97.3 736.2 99.7C763.3 102 790.7 114 818 117.2C845.3 120.3 872.7 114.7 886.3 111.8L900 109L900 60L886.3 64.3C872.7 68.7 845.3 77.3 818 80C790.7 82.7 763.3 79.3 736.2 79.7C709 80 682 84 654.8 83C627.7 82 600.3 76 573 74.7C545.7 73.3 518.3 76.7 491 76.8C463.7 77 436.3 74 409 70.5C381.7 67 354.3 63 327 66C299.7 69 272.3 79 245.2 80.8C218 82.7 191 76.3 163.8 71.3C136.7 66.3 109.3 62.7 82 64.2C54.7 65.7 27.3 72.3 13.7 75.7L0 79Z" fill="#47b0ff"></path><path d="M0 151L13.7 151C27.3 151 54.7 151 82 151C109.3 151 136.7 151 163.8 151C191 151 218 151 245.2 151C272.3 151 299.7 151 327 151C354.3 151 381.7 151 409 151C436.3 151 463.7 151 491 151C518.3 151 545.7 151 573 151C600.3 151 627.7 151 654.8 151C682 151 709 151 736.2 151C763.3 151 790.7 151 818 151C845.3 151 872.7 151 886.3 151L900 151L900 107L886.3 109.8C872.7 112.7 845.3 118.3 818 115.2C790.7 112 763.3 100 736.2 97.7C709 95.3 682 102.7 654.8 103.7C627.7 104.7 600.3 99.3 573 98.7C545.7 98 518.3 102 491 101C463.7 100 436.3 94 409 96.2C381.7 98.3 354.3 108.7 327 114.8C299.7 121 272.3 123 245.2 124.8C218 126.7 191 128.3 163.8 129.3C136.7 130.3 109.3 130.7 82 129.3C54.7 128 27.3 125 13.7 123.5L0 122Z" fill="#73c5ff"></path></svg>