<svg version="1.2" xmlns="http://www.w3.org/2000/svg" viewBox="0 0 960 124" width="960" height="124"><style>.s0{fill:#4facf7}.s1{fill:#1e97fd}.s2{fill:#0080ff}.s3{fill:#0066ff}</style><path class="s0" d="m0 66l14.5-2c14.5-2 43.5-6 72.7-10.5c29.1-4.5 58.5-9.5 87.6-19.3c29.2-9.9 58.2-24.5 87.2-30.4c29-5.8 58-2.8 87 4.9c29 7.6 58 20 87.2 25c29.1 5 58.5 2.6 87.6 5.8c29.2 3.2 58.2 11.8 87.2 17.3c29 5.5 58 7.9 87 0.4c29-7.5 58-24.9 87.2-30.7c29.1-5.8 58.5-0.2 87.6 8c29.2 8.2 58.2 18.8 72.7 24.2l14.5 5.3v60h-14.5c-14.5 0-43.5 0-72.7 0c-29.1 0-58.5 0-87.6 0c-29.2 0-58.2 0-87.2 0q-43.5 0-87 0c-29 0-58 0-87.2 0c-29.1 0-58.5 0-87.6 0c-29.2 0-58.2 0-87.2 0q-43.5 0-87 0c-29 0-58 0-87.2 0c-29.1 0-58.5 0-87.6 0c-29.2 0-58.2 0-72.7 0h-14.5z" /><path class="s1" d="m0 9l14.5 9.3c14.5 9.4 43.5 28 72.7 28.7c29.1 0.7 58.5-16.7 87.6-16.5c29.2 0.2 58.2 17.8 87.2 22.3c29 4.5 58-4.1 87-7.8c29-3.7 58-2.3 87.2-2.3c29.1 0 58.5-1.4 87.6 1.1c29.2 2.5 58.2 8.9 87.2 5.4c29-3.5 58-16.9 87-14.2c29 2.7 58 21.3 87.2 25.2c29.1 3.8 58.5-7.2 87.6-7.2c29.2 0 58.2 11 72.7 16.5l14.5 5.5v49h-14.5c-14.5 0-43.5 0-72.7 0c-29.1 0-58.5 0-87.6 0c-29.2 0-58.2 0-87.2 0q-43.5 0-87 0c-29 0-58 0-87.2 0c-29.1 0-58.5 0-87.6 0c-29.2 0-58.2 0-87.2 0q-43.5 0-87 0c-29 0-58 0-87.2 0c-29.1 0-58.5 0-87.6 0c-29.2 0-58.2 0-72.7 0h-14.5z" /><path class="s2" d="m0 79l14.5-2.8c14.5-2.9 43.5-8.5 72.7-13.5c29.1-5 58.5-9.4 87.6-5.9c29.2 3.5 58.2 14.9 87.2 15.9c29 1 58-8.4 87-7.5c29 0.8 58 11.8 87.2 12.1c29.1 0.4 58.5-10 87.6-18.6c29.2-8.7 58.2-15.7 87.2-11c29 4.6 58 21 87 23.3c29 2.3 58-9.3 87.2-15.5c29.1-6.2 58.5-6.8 87.6-2.5c29.2 4.3 58.2 13.7 72.7 18.3l14.5 4.7v48h-14.5c-14.5 0-43.5 0-72.7 0c-29.1 0-58.5 0-87.6 0c-29.2 0-58.2 0-87.2 0q-43.5 0-87 0c-29 0-58 0-87.2 0c-29.1 0-58.5 0-87.6 0c-29.2 0-58.2 0-87.2 0q-43.5 0-87 0c-29 0-58 0-87.2 0c-29.1 0-58.5 0-87.6 0c-29.2 0-58.2 0-72.7 0h-14.5z" /><path class="s3" d="m0 70l14.5 6c14.5 6 43.5 18 72.7 21.7c29.1 3.6 58.5-1 87.6-2.5c29.2-1.5 58.2 0.1 87.2 2.5c29 2.3 58 5.3 87 7c29 1.6 58 2 87.2-1.9c29.1-3.8 58.5-11.8 87.6-17.1c29.2-5.4 58.2-8 87.2-3.5c29 4.5 58 16.1 87 16.8c29 0.7 58-9.7 87.2-12.8c29.1-3.2 58.5 0.8 87.6 4.3c29.2 3.5 58.2 6.5 72.7 8l14.5 1.5v23h-14.5c-14.5 0-43.5 0-72.7 0c-29.1 0-58.5 0-87.6 0c-29.2 0-58.2 0-87.2 0q-43.5 0-87 0c-29 0-58 0-87.2 0c-29.1 0-58.5 0-87.6 0c-29.2 0-58.2 0-87.2 0q-43.5 0-87 0c-29 0-58 0-87.2 0c-29.1 0-58.5 0-87.6 0c-29.2 0-58.2 0-72.7 0h-14.5z" /></svg>