<svg id="visual" viewBox="0 0 960 150" width="960" height="150" xmlns="http://www.w3.org/2000/svg" xmlns:xlink="http://www.w3.org/1999/xlink" version="1.1"><rect x="0" y="0" width="960" height="150" fill="#002233"></rect><path d="M0 59L32 62.5C64 66 128 73 192 78.8C256 84.7 320 89.3 384 84.3C448 79.3 512 64.7 576 62C640 59.3 704 68.7 768 73.3C832 78 896 78 928 78L960 78L960 0L928 0C896 0 832 0 768 0C704 0 640 0 576 0C512 0 448 0 384 0C320 0 256 0 192 0C128 0 64 0 32 0L0 0Z" fill="#0066FF" stroke-linecap="round" stroke-linejoin="miter"></path></svg>